<svg width="503" height="192" viewBox="0 0 503 192" fill="none" xmlns="http://www.w3.org/2000/svg">
<path d="M460 60.9C444.5 60.9 431.6 63.7 419.9 68.4V146.2H446V83.7C449.8 82 454.5 81.1 459.4 81.1C473.5 81.1 476.2 89.7 476.2 105.6V146.2H502.3V101.8C502.4 76.9 494.1 60.9 460 60.9Z" fill="white"/>
<path d="M236.7 31.5H210.6V145.8H236.7V31.5Z" fill="white"/>
<path d="M294.8 63.6H265.1L236.7 100.9L266.6 145.9H297.5L265.1 99.9L294.8 63.6Z" fill="white"/>
<path d="M352.4 60.5C338.6 60.5 324.2 63.5 313.3 68V177.9H339.4V146.5C372.2 152.5 398.6 138.9 398.1 103.8C398 76 383.2 60.5 352.4 60.5ZM351.1 128.5C347.1 128.5 342 127.7 339.4 126.7V82.9C355.1 76.7 371.5 80.9 371.2 103.9C371.1 119.9 365.2 128.5 351.1 128.5Z" fill="white"/>
<path d="M66.7 141.1C83.6 136.5 102 136.7 118.9 141.5L122.9 129.5C103 123.8 80.9 123.8 61 129.5L65 141.5L66.7 141.1Z" fill="white"/>
<path d="M82.3 64.6L92 74.6L101.7 64.6L92 54.5L82.3 64.6Z" fill="white"/>
<path d="M66.4 92.3C65.5 98.9 69.1 108.2 76.1 119.2C80.6 118.5 84.9 118.2 89.2 118.2L88 116C80.7 102 79.3 97.7 79.3 94.8C79.1 90.3 82.9 89.9 87.8 90.4V79.5C76.6 75.3 67.5 81.7 66.4 92.3Z" fill="white"/>
<path d="M58.7001 92C50.9001 91.7 45.0001 96.6 45.0001 103.6C44.7001 108.6 47.8001 114.6 57.3001 122.8C61.2001 121.5 65.6001 120.5 69.8001 119.6C62.3001 112.5 56.7001 106.6 57.3001 104.3C57.3001 103.8 57.3001 102.6 59.6001 102.1L61.2001 101.8C60.3001 98.5 59.9001 95.2 60.2001 92H58.7001Z" fill="white"/>
<path d="M94.8 118.2C99.1 118.3 103.4 118.6 107.9 119.2C114.9 108.2 118.5 98.9 117.6 92.3C116.4 81.7 107.3 75.3 96.1001 79.4V90.3C100.9 89.8 104.7 90.2 104.6 94.7C104.6 97.7 103.2 101.9 95.9 115.9L94.8 118.2Z" fill="white"/>
<path d="M116.3 117.5L114.2 119.6C118.4 120.4 122.8 121.5 126.7 122.8C136.2 114.6 139.3 108.6 139 103.6C139.1 95.9 132 91.3 123.8 92.1C124 95.3 123.6 98.6 122.8 101.9L124.4 102.2C126.7 102.6 126.7 103.9 126.7 104.4C126.7 106.4 125.2 108.9 116.3 117.5Z" fill="white"/>
<path d="M30.2001 94.3C32.4001 92.9 37.1001 89.8 42.6001 86.9C37.9001 75.8 35.3001 66 35.4001 58.4C35.4001 41.8 39.4001 28.3 46.4001 21.3C64.7001 2.89999 100.4 26.4 116.7 51.3C121.7 50.6 127.6 49.6 132.7 49.6C116.3 20.1 83.2001 0.299988 62.4001 0.299988C33.9001 0.299988 21.1001 29.5 21.1001 58.4C21.2001 72.2 25.8001 83.5 30.2001 94.3Z" fill="white"/>
<path d="M134.4 58.2C126.3 58.2 121 59.4 121 59.4C122.8 63.6 124.1 68.4 124.8 73.4C128 73 131.3 72.6 134.4 72.6C152.5 72.5 163.8 82.9 164.2 95.9C164.2 102.8 160.5 111.9 156.9 120.6C155.1 125.1 151.7 133.7 149.9 141.1C146.9 153.4 138.2 187.6 118.6 174.4C114.1 176.4 107.9 179.2 103.2 180.5C112.5 188.8 118.9 191.6 127.9 191.6C152.2 191.6 160.5 157.4 163.7 144.5C166.8 130.5 178.6 110.9 178.4 95.8C178.2 73.3 157.5 57.5 134.4 58.2Z" fill="white"/>
<path d="M111.5 168.2C107.9 164.7 104.3 161.1 100.8 157.3C75.6 166.8 44 155.7 25.6 137.8C19 131.2 15 123.8 15 118C15 109.9 17.6 104.1 23.2 99.6C21.4 95.2 19.5 90.5 17.9 85.9C6.60005 93.3 0.800049 104.2 0.800049 118C0.800049 127.7 6.00004 138.3 15.6 147.9C34.4 167.8 78.7 185.2 111.5 168.2Z" fill="white"/>
</svg>
